<svg id="Layer_1" data-name="Layer 1" xmlns="http://www.w3.org/2000/svg" viewBox="0 0 1080 1080"><defs><style>.cls-1{fill:#b72530;}.cls-2{fill:#fff;}</style></defs><rect class="cls-1" width="1080" height="1080"/><path class="cls-2" d="M488,672.44,295.36,479.17a18.38,18.38,0,0,1-5.36-13V262a18.38,18.38,0,0,1,18.38-18.38H501A18.38,18.38,0,0,1,519.41,262V659.46C519.41,675.85,499.58,684.05,488,672.44Z"/><path class="cls-2" d="M592,407.56,784.64,600.83a18.38,18.38,0,0,1,5.36,13V818a18.38,18.38,0,0,1-18.38,18.38H579A18.38,18.38,0,0,1,560.59,818V420.54C560.59,404.15,580.42,396,592,407.56Z"/></svg>